<?xml version="1.0" encoding="utf-8"?>
<!DOCTYPE svg PUBLIC "-//W3C//DTD SVG 20010904//EN" "http://www.w3.org/TR/2001/REC-SVG-20010904/DTD/svg10.dtd">
<svg version="1.0" xmlns="http://www.w3.org/2000/svg" width="400px" height="400px" viewBox="0 0 400 400" preserveAspectRatio="xMidYMid meet">
 <g fill="#ffffff">
  <path d="M186 397 c-53.9 -3.4 -105.5 -30.4 -139.7 -73 -31.5 -39.2 -46.3 -85.8 -43.2 -136.5 5.4 -88.9 71.4 -163.4 159.8 -180.5 42.4 -8.2 90.1 -1.1 128.1 19.2 61.2 32.6 100.7 93.4 104.9 161.3 4.9 80.1 -37.2 153.3 -108.9 189.5 -20.1 10.2 -48.2 18.1 -69.1 19.5 -17.1 1.1 -20.6 1.2 -31.9 0.5z m-73 -152 l0 -59 -6.2 4 c-3.5 2.2 -10 6.4 -14.5 9.3 -4.5 2.8 -8.6 5.9 -9 6.7 -1 1.9 -1.7 85.6 -0.8 92.8 l0.6 5.2 15 0 14.9 0 0 -59z m94.7 57.9 c21.9 -3 42.9 -23.5 46.9 -45.7 1.9 -11 1.9 -46.1 0 -48.8 -1.2 -1.5 -1.8 -1.7 -3.3 -0.8 -2.7 1.6 -3.2 6.6 -3.2 30.5 -0.1 22.6 -0.7 26.4 -5.6 35.9 -4.3 8.3 -18.9 20 -24.9 20 -1.4 0 -2.8 0.5 -3.1 1 -1 1.6 -21.9 1.2 -28.9 -0.6 -8.1 -2.1 -13.2 -5.2 -20 -12.1 -4 -4.1 -6.5 -7.9 -8.8 -13.3 l-3.3 -7.5 -0.5 -26.2 c-0.4 -22.4 -0.7 -26.5 -2.1 -27.8 -1.5 -1.5 -1.8 -1.4 -3.8 1.2 -2.2 2.7 -2.3 3.3 -1.8 23.8 0.3 15.8 0.8 22.5 2.1 27 6.5 23 25.1 40.3 46.4 43.4 3.1 0.5 5.8 0.9 5.9 1 0.1 0 3.7 -0.4 8 -1z m108.3 -47.8 l0 -49 -3.3 -2.5 c-1.9 -1.5 -3.7 -2.6 -4 -2.6 -0.4 0 -1.5 -0.8 -2.5 -1.7 -1 -1 -4.7 -3.6 -8.2 -5.8 -3.4 -2.2 -7.6 -4.8 -9.1 -5.8 l-2.9 -1.9 0 59.1 0 59.1 15 0 15 0 0 -48.9z m-101.1 17.2 c3.2 -2.2 7.2 -6.2 9.3 -9.3 5.2 -7.6 6 -14.1 5.6 -44.9 -0.3 -22.2 -0.5 -25.2 -2 -26.8 -1.7 -1.6 -1.9 -1.6 -3.5 0 -1.6 1.6 -1.9 5 -2.3 34 -0.5 34.7 -0.6 35.3 -6.2 40.3 -4 3.6 -6.4 4.4 -14.2 4.4 -12.7 0 -19.3 -4.3 -21.5 -14.1 -0.7 -2.7 -1.1 -26.6 -1.1 -60.5 0 -53.8 -0.1 -56.2 -1.9 -57.8 -1.8 -1.6 -2 -1.6 -3.5 0.6 -1.4 2 -1.6 8.5 -1.6 57.5 0 53.1 0.1 55.4 2 60.7 3.3 8.6 11.8 17.1 19.8 19.7 1.5 0.5 5.6 0.7 9.1 0.5 5.4 -0.3 7.2 -1 12 -4.3z m-10.5 -24.5 c1.4 -1.9 1.6 -7.2 1.6 -37.6 0 -34.9 -0.3 -38.4 -3.4 -40.4 -0.6 -0.4 -1.9 0 -2.8 0.9 -1.7 1.5 -1.8 4.5 -1.8 38.5 0 37.3 0.3 40.8 3.7 40.8 0.6 0 1.9 -1 2.7 -2.2z m140.9 -82 c-0.9 -1 -3.3 -2.8 -5.2 -4.1 -2 -1.2 -4 -2.5 -4.6 -2.9 -0.5 -0.5 -6.2 -4.2 -12.5 -8.4 -6.3 -4.1 -12.3 -8.1 -13.3 -8.9 -0.9 -0.8 -2 -1.5 -2.3 -1.5 -0.8 0 -9.8 -6.4 -10.2 -7.2 -0.2 -0.5 -0.8 -0.8 -1.4 -0.8 -0.6 0 -2.6 -1.1 -4.4 -2.5 -1.8 -1.4 -3.6 -2.5 -4 -2.5 -0.4 0 -1.7 -0.8 -2.8 -1.8 -1.2 -1 -7.9 -5.6 -15.1 -10.2 -7.1 -4.6 -13.5 -8.9 -14.2 -9.5 -0.6 -0.5 -3.6 -2.5 -6.7 -4.4 -3.1 -1.8 -5.6 -3.7 -5.6 -4.2 0 -0.5 -0.5 -0.9 -1.1 -0.9 -1 0 -14.8 -8.6 -17.5 -10.8 -0.5 -0.5 -2.1 -1.5 -3.5 -2.2 -1.3 -0.7 -3.1 -1.9 -3.9 -2.7 -0.8 -0.7 -5 -3.7 -9.3 -6.5 -8.8 -5.7 -8.5 -5.7 -17.2 0.6 -2.7 2 -11.3 7.7 -19 12.8 -7.7 5 -19.1 12.5 -25.3 16.7 -19.4 13.1 -24.6 16.1 -27.3 16.1 -6 0 -5.9 0.5 -5.9 -20.1 l0 -18.9 -14.9 0 -14.9 0 -0.7 2.7 c-0.4 1.6 -0.6 15.6 -0.4 31.3 0.2 15.7 0 29.4 -0.4 30.5 -0.4 1.1 -4.9 4.6 -10 7.9 -5.1 3.2 -10.8 6.9 -12.7 8.2 -7.5 5.2 -7 3.8 -7 21.4 0 8.8 0.3 16 0.8 15.9 0.4 0 1.9 -0.8 3.3 -1.7 6.1 -4 12.2 -8 24.2 -16.1 13.4 -8.9 19.7 -13.1 23.3 -15.3 2.8 -1.7 37 -24.4 44.9 -29.8 3.3 -2.3 15.2 -10.1 26.4 -17.5 18.2 -12.1 20.8 -13.5 24.7 -13.5 3.1 0 5.5 0.8 8.6 2.9 2.4 1.5 6.1 4 8.3 5.4 2.2 1.5 5.9 4 8.3 5.7 2.3 1.6 4.5 3 4.7 3 0.5 0 9.7 6.2 10.5 7.1 0.3 0.3 3.6 2.5 7.5 5 3.8 2.4 14.5 9.5 23.8 15.7 9.3 6.1 17.3 11.2 17.7 11.2 0.5 0 1 0.4 1.2 0.8 0.2 0.5 3.7 3 7.8 5.7 4.1 2.7 8 5.3 8.5 5.7 0.6 0.5 6 4 12 8 6.1 3.9 14.8 9.7 19.5 12.9 l8.5 5.7 0.3 -16.1 c0.2 -13.9 0 -16.2 -1.5 -17.9z"/>
 </g>
 <g fill="#505050">
  <path d="M163 329.9 c0 -12.4 0.3 -16 1.3 -15.7 0.7 0.3 1.3 2.8 1.5 6.6 l0.3 6.2 3.4 0 3.5 0 0 -6 c0 -5.3 0.2 -6 2 -6 1.9 0 2 0.7 2 15.5 0 14.8 -0.1 15.5 -2 15.5 -1.8 0 -2 -0.7 -2 -7.6 l0 -7.5 -3.2 0.3 -3.3 0.3 -0.3 7.3 c-0.2 5.5 -0.6 7.2 -1.7 7.2 -1.3 0 -1.5 -2.7 -1.5 -16.1z"/>
  <path d="M184.2 344.4 c-2.1 -1.4 -2.2 -2.2 -2.2 -14.2 0 -12.1 0.1 -12.8 2.3 -14.1 3.5 -2.3 6.4 -2.1 9.1 0.4 2.5 2.3 2.6 2.9 2.6 13.3 0 9.5 -0.3 11.3 -2.1 13.6 -2.4 3 -6.3 3.4 -9.7 1z m6.7 -3.6 c1.1 -2.9 1.4 -14.7 0.5 -19.3 -0.5 -2.9 -1 -3.6 -2.8 -3.3 -2 0.3 -2.1 0.9 -2.4 11.2 -0.2 7.1 0.1 11.3 0.9 12.2 1.6 2 2.8 1.7 3.8 -0.8z"/>
  <path d="M202 329.9 l0 -16 2.8 0.3 c2.6 0.3 2.7 0.5 4.3 10.8 1.9 12.6 1.7 11.6 2.9 10.4 0.5 -0.5 1.2 -3 1.5 -5.4 0.2 -2.5 0.7 -6.1 1 -8 1.3 -8 1.4 -8.1 4.3 -7.8 l2.7 0.3 0.3 15.8 c0.2 14.7 0.1 15.8 -1.5 15.5 -1.5 -0.3 -1.8 -1.6 -2.1 -9.6 -0.2 -6.9 -0.6 -9.2 -1.6 -9.2 -0.9 0 -1.6 1.9 -2 5.3 -1.5 12 -1.9 13.7 -3.1 13.7 -1.4 0 -2 -2.3 -3.7 -13.7 -0.6 -4 -1.4 -7.3 -1.9 -7.3 -0.5 0 -0.9 4.7 -0.9 10.5 0 8.7 -0.3 10.5 -1.5 10.5 -1.3 0 -1.5 -2.5 -1.5 -16.1z"/>
  <path d="M226.4 344.7 c-0.2 -0.7 -0.3 -7.8 -0.2 -15.7 l0.3 -14.5 6 0 c4.9 0 6 0.3 6.3 1.8 0.3 1.4 -0.4 1.7 -4.2 1.7 l-4.6 0 0 4.5 c0 4.5 0 4.5 3.5 4.5 2.8 0 3.5 0.4 3.5 2 0 1.6 -0.7 2 -3.5 2 l-3.5 0 0 6 0 6 4.5 0 c3.3 0 4.5 0.4 4.5 1.5 0 2 -11.8 2.2 -12.6 0.2z"/>
  <path d="M79.5 301.8 c-0.9 -7.2 -0.2 -96.9 0.8 -98.9 0.4 -0.8 2.2 -2.4 4 -3.4 1.8 -1 9.2 -5.9 16.6 -10.7 7.4 -4.8 13.8 -8.8 14.2 -8.8 0.5 0 0.9 28.6 0.9 63.5 l0 63.5 -17.9 0 -18 0 -0.6 -5.2z"/>
  <path d="M283 243.5 c0 -50.2 0.3 -63.5 1.3 -63.4 0.6 0 3.7 1.7 6.7 3.9 3 2.1 8.5 5.7 12.3 8 3.7 2.3 6.7 4.6 6.7 5.1 0 0.5 0.5 0.9 1.2 0.9 0.6 0 2.6 1.1 4.5 2.6 l3.3 2.5 0 52 0 51.9 -18 0 -18 0 0 -63.5z"/>
  <path d="M49 185 c0 -18.8 0.2 -21.2 1.8 -22.5 2.6 -2.2 7.8 -5.7 17.9 -12.1 5.1 -3.3 9.5 -6.6 9.8 -7.4 0.4 -0.8 0.6 -14.6 0.5 -30.6 0 -16.1 0.2 -30.4 0.6 -31.8 l0.6 -2.6 17.9 0 17.9 0 0 18.9 c0 15.2 0.3 19 1.4 19.4 1.4 0.6 7 -2.7 25.8 -15.4 6.2 -4.2 17.6 -11.7 25.3 -16.7 7.7 -5.1 16.3 -10.8 19.1 -12.8 2.8 -2 6.7 -4.5 8.6 -5.6 l3.6 -2.1 9.3 6.1 c5.2 3.4 10.1 6.8 10.9 7.5 0.8 0.8 2.6 2 3.9 2.7 1.4 0.7 3 1.7 3.5 2.2 2.7 2.2 16.5 10.8 17.5 10.8 0.6 0 1.1 0.4 1.1 0.9 0 0.5 2.5 2.4 5.6 4.2 3.1 1.9 6.1 3.9 6.7 4.4 0.7 0.6 7.1 4.9 14.2 9.5 7.2 4.6 13.9 9.2 15.1 10.2 1.1 1 2.4 1.8 2.8 1.8 0.4 0 2.2 1.1 4 2.5 1.8 1.4 3.8 2.5 4.4 2.5 0.6 0 1.2 0.3 1.4 0.8 0.4 0.8 9.4 7.2 10.2 7.2 0.3 0 1.4 0.7 2.3 1.5 1 0.8 7 4.8 13.3 9 6.3 4.1 12.4 8.1 13.4 8.8 1 0.6 3.7 2.6 6 4.2 l4.1 3.1 0.3 21.2 c0.1 11.7 -0.2 21.2 -0.6 21.2 -0.5 0 -2.7 -1.2 -4.8 -2.6 -14.7 -9.9 -19.1 -12.9 -28.9 -19.2 -6 -4 -11.4 -7.5 -12 -8 -0.5 -0.4 -4.4 -3 -8.5 -5.7 -4.1 -2.7 -7.6 -5.2 -7.8 -5.7 -0.2 -0.4 -0.7 -0.8 -1.2 -0.8 -0.4 0 -8.4 -5.1 -17.7 -11.2 -9.3 -6.2 -20 -13.3 -23.8 -15.7 -3.9 -2.5 -7.2 -4.7 -7.5 -5 -0.8 -0.9 -10 -7.1 -10.5 -7.1 -0.2 0 -2.4 -1.4 -4.7 -3 -2.4 -1.7 -6.1 -4.2 -8.3 -5.7 -2.2 -1.4 -5.9 -3.9 -8.3 -5.4 -2.4 -1.6 -4.9 -2.9 -5.6 -2.9 -1.2 0 -28.7 17.7 -48.1 31 -7.9 5.4 -42.1 28.1 -44.9 29.8 -3.6 2.2 -9.9 6.4 -23.3 15.3 -15.7 10.6 -20.7 13.9 -24.7 16.3 -1.7 1 -3.3 2.2 -3.6 2.6 -0.5 0.8 -4.5 3 -5.4 3 -0.3 0 -0.6 -9.5 -0.6 -21z"/>
 </g>
 <g fill="#5f4590">
  <path d="M190.8 305.9 c-21.3 -3.1 -39.8 -20.4 -46.4 -43.4 -1.4 -4.7 -1.8 -11.2 -2.2 -30 -0.3 -23.4 -0.3 -24.1 1.8 -26.8 1.6 -2 3 -2.7 5.5 -2.7 5.8 0 5.9 0.7 6.5 29.4 l0.5 26.1 3.3 7.5 c2.3 5.4 4.8 9.2 8.8 13.3 6.8 6.9 11.9 10 20 12.1 6.9 1.8 21.9 2.2 22.9 0.6 0.3 -0.5 1.7 -1 3.1 -1 6 0 20.6 -11.6 24.9 -19.9 4.6 -9 4.9 -10.7 5.4 -37.7 0.6 -23.9 0.8 -26.4 2.5 -28.3 2.4 -2.7 7 -2.7 9.6 -0.1 1.9 1.9 2 3.3 2 24.8 -0.1 14.6 -0.6 25.4 -1.4 30.4 -4 22.2 -25 42.7 -46.9 45.7 -8.8 1.2 -11.7 1.2 -19.9 0z"/>
  <path d="M194 279.7 c-3 -0.7 -7.2 -2.3 -9.2 -3.5 -5.5 -3.4 -11.5 -10.7 -13.8 -16.8 -1.9 -5.3 -2 -7.6 -2 -64 l0 -58.5 2.5 -2.4 c2.9 -3 4.5 -3.1 7.9 -0.4 l2.6 2 0 56.2 c0 34 0.4 57.9 1.1 60.6 2 8.8 8.9 14.1 18.5 14.1 5 0 8.8 -1.6 12 -5.2 4.8 -5.2 4.9 -5.6 5.4 -39.6 l0.5 -32.4 2.4 -1.9 c2.9 -2.4 5.3 -2.4 8.2 0 l2.4 1.9 0.3 28.2 c0.4 33.6 -0.4 40.2 -5.3 47.7 -7.7 11.6 -20.4 16.9 -33.5 14z"/>
  <path d="M197 251.8 c-2 -2.2 -2 -3.1 -1.8 -42.6 l0.3 -40.5 2.7 -2 c2.3 -1.7 3.1 -1.8 5.6 -0.8 1.6 0.7 3.4 2.4 4.1 3.7 0.7 1.7 1.1 14.5 1.1 41 l0 38.5 -2.5 2.4 c-3 3.1 -6.8 3.2 -9.5 0.3z"/>
 </g>
</svg>