<?xml version="1.0" encoding="utf-8"?>
<!DOCTYPE svg PUBLIC "-//W3C//DTD SVG 20010904//EN" "http://www.w3.org/TR/2001/REC-SVG-20010904/DTD/svg10.dtd">
<svg version="1.0" xmlns="http://www.w3.org/2000/svg" width="309px" height="305px" viewBox="0 0 309 305" preserveAspectRatio="xMidYMid meet">
 <g fill="#515151">
  <path d="M121 248 c0 -10.9 0.2 -13 1.5 -13 1.2 0 1.5 1.3 1.5 5.5 0 5.2 0.1 5.5 2.5 5.5 2.4 0 2.5 -0.3 2.5 -5.5 0 -4.2 0.3 -5.5 1.5 -5.5 1.3 0 1.5 2.1 1.5 13 0 10.9 -0.2 13 -1.5 13 -1.2 0 -1.5 -1.3 -1.5 -6 0 -5.7 -0.1 -6 -2.5 -6 -2.4 0 -2.5 0.3 -2.5 6 0 4.7 -0.3 6 -1.5 6 -1.3 0 -1.5 -2.1 -1.5 -13z"/>
  <path d="M138.2 259.4 c-2 -1.4 -2.2 -2.3 -2.2 -11.4 0 -9.4 0.1 -10 2.4 -11.5 3.6 -2.4 7.3 -0.6 8.2 4 0.8 4.7 0.1 17.2 -1.1 18.4 -2 1.8 -5.1 2.1 -7.3 0.5z m4.6 -2.6 c1.8 -1.8 1.6 -16.2 -0.3 -17.8 -2.6 -2.2 -3.5 0 -3.5 8.9 0 10 0.8 11.9 3.8 8.9z"/>
  <path d="M150 248 l0 -13 2.4 0 c2.2 0 2.4 0.5 3.6 9.7 1.4 10.3 2.2 10.3 3.4 -0.2 1 -8.3 1.4 -9.5 3.7 -9.5 1.8 0 1.9 0.8 1.9 13 0 15.6 -1.8 17.8 -2.2 2.8 -0.3 -11.7 -1.1 -11.2 -2.8 1.5 -1.7 12 -3.3 11.6 -5.2 -1.5 l-1.5 -10.3 -0.2 10.3 c-0.1 8.3 -0.4 10.2 -1.6 10.2 -1.3 0 -1.5 -2.1 -1.5 -13z"/>
  <path d="M169 248 l0 -13 5 0 c3.8 0 5 0.4 5 1.5 0 1 -1.1 1.5 -3.5 1.5 -3.4 0 -3.5 0.1 -3.5 4 0 3.6 0.3 4 2.5 4 1.6 0 2.5 0.6 2.5 1.5 0 0.9 -0.9 1.5 -2.5 1.5 -2.3 0 -2.5 0.4 -2.5 4.5 0 4.5 0 4.5 3.5 4.5 2.4 0 3.5 0.5 3.5 1.5 0 1.1 -1.2 1.5 -5 1.5 l-5 0 0 -13z"/>
  <path d="M57.3 211.8 c-1 -1.6 -1.7 -67.2 -0.8 -74.6 l0.7 -5.3 13.3 -8.9 c7.4 -5 13.7 -9 14 -9 0.3 0 0.5 22.3 0.5 49.5 l0 49.5 -13.4 0 c-9.7 0 -13.7 -0.4 -14.3 -1.2z"/>
  <path d="M214 163.5 c0 -27.2 0.2 -49.5 0.5 -49.5 0.3 0 6.6 4.1 14 9 l13.5 9 0 40.5 0 40.5 -14 0 -14 0 0 -49.5z"/>
  <path d="M33.2 118.4 l0.3 -16.8 10 -6.9 c5.5 -3.7 10.6 -7.2 11.4 -7.6 1.1 -0.7 1.3 -5.2 1.2 -23.8 -0.1 -12.7 0.1 -24.2 0.5 -25.7 l0.6 -2.6 13.9 0 13.9 0 0 15.1 0 15.1 2.3 -0.4 c1.2 -0.2 15.7 -9.5 32.2 -20.5 l30.1 -20 9.9 6.7 c5.5 3.7 31.5 21 57.8 38.4 26.3 17.4 48 32.2 48.3 32.9 0.2 0.7 0.3 8.4 0.2 17 l-0.3 15.8 -5 -3.5 c-23.4 -16.1 -109.7 -72.6 -111 -72.6 -1.5 0 -12.6 7.2 -81.7 53.1 -18 12 -33.2 22 -33.8 22.4 -0.7 0.4 -1 -4.7 -0.8 -16.1z"/>
 </g>
 <g fill="#5f458f">
  <path d="M137.9 227.6 c-12.4 -3.6 -22.6 -12.3 -28.6 -24.3 l-3.8 -7.7 0 -22.5 0 -22.5 2.8 -1 c2.2 -0.8 3.1 -0.6 4.5 0.7 1.5 1.5 1.8 4.6 2.2 22.5 0.5 19.7 0.6 21 3.1 26.2 3.3 6.9 9.7 13.3 16.9 16.8 4.7 2.3 6.7 2.7 14.5 2.7 7.6 0 9.8 -0.4 14.5 -2.6 7 -3.4 13.6 -9.9 16.9 -16.9 2.5 -5.3 2.6 -6.3 2.9 -26.1 0.3 -19.1 0.5 -20.8 2.3 -22.5 1.5 -1.4 2.5 -1.6 4.7 -0.8 l2.7 1 0 22.5 0 22.5 -3.7 7.6 c-4.8 9.7 -11.9 16.8 -21.6 21.6 -6.7 3.3 -8.3 3.6 -16.6 3.9 -5.4 0.1 -11 -0.3 -13.7 -1.1z"/>
  <path d="M141.6 207.6 c-5.7 -2.1 -10.8 -6.7 -13.6 -12.2 l-2.5 -4.8 -0.3 -45.8 c-0.2 -31 0.1 -46.5 0.8 -47.8 1.4 -2.7 6.6 -2.7 8 -0.1 0.6 1.3 1 17.8 1 46.9 l0 44.9 2.3 3.4 c6.3 9.4 19.9 8.8 24.9 -1.2 1.6 -3 1.8 -6.5 1.8 -27.5 0 -22.1 0.2 -24.2 1.8 -25.7 2.4 -2.2 4.5 -2.1 6.5 0.1 1.5 1.6 1.7 4.9 1.7 25.9 0 26 -0.5 29.4 -5.6 36 -5.7 7.5 -18 11.1 -26.8 7.9z"/>
  <path d="M146 186.1 c-0.6 -1.2 -1 -13.3 -1 -32.4 0 -28.2 0.1 -30.5 1.8 -32 2.4 -2.2 4.5 -2.1 6.5 0.1 1.5 1.6 1.7 5.4 1.7 32.8 0 22.8 -0.3 31.3 -1.2 32.2 -1.9 1.9 -6.6 1.5 -7.8 -0.7z"/>
 </g>
</svg>